<svg width="45" height="44" viewBox="0 0 45 44" fill="none" xmlns="http://www.w3.org/2000/svg">
<g id="fi_14622071" clip-path="url(#clip0_16332_196)">
<g id="Layer_2_00000127734386600706393420000008725532311313158846_">
<g id="Layer_2_copy_15">
<g id="_148">
<path id="Vector" d="M31.9961 32.2008V33.6016C31.9961 34.925 30.9133 36.0078 29.5898 36.0078H10.9844C9.66094 36.0078 8.57812 34.925 8.57812 33.6016V4.98438C8.57812 3.66094 9.66094 2.57812 10.9844 2.57812H29.5898C30.9133 2.57812 31.9961 3.66094 31.9961 4.98438V6.42813C32.3914 6.39375 32.7953 6.36797 33.1992 6.36797C33.6547 6.36797 34.1187 6.39375 34.5742 6.43672V4.98438C34.5742 2.23438 32.3398 0 29.5898 0H10.9844C8.23438 0 6 2.23438 6 4.98438V39.0156C6 41.7656 8.23438 44 10.9844 44H29.5898C32.3398 44 34.5742 41.7656 34.5742 39.0156V32.1836C34.1187 32.2352 33.6547 32.2609 33.1992 32.2609C32.7867 32.2609 32.3914 32.2352 31.9961 32.2008ZM22.2766 41.4219H18.2891C17.4984 41.4047 16.8797 40.7516 16.8969 39.9609C16.9141 39.2047 17.5242 38.5859 18.2891 38.5687H22.2852C23.0758 38.5516 23.7289 39.1703 23.7461 39.9609C23.7633 40.7516 23.1445 41.4047 22.3539 41.4219C22.3281 41.4219 22.3023 41.4219 22.2766 41.4219Z" fill="#4C91CE"/>
<path id="Vector_2" d="M33.1922 7.66406C26.7555 7.66406 21.5391 12.8805 21.5391 19.3172C21.5391 25.7539 26.7555 30.9703 33.1922 30.9703C39.6289 30.9703 44.8367 25.7453 44.8367 19.3172C44.8367 12.8805 39.6203 7.66406 33.1922 7.66406ZM39.8094 17.6844L32.9172 24.5766C32.0922 25.4016 30.7602 25.4016 29.9438 24.5766L26.1453 20.7781C25.3375 19.9445 25.3547 18.6125 26.1883 17.8047C27.0047 17.0055 28.3109 17.0055 29.1273 17.8047L31.4305 20.1078L36.8273 14.7023C37.6523 13.8773 38.9844 13.8773 39.8094 14.7023C40.6258 15.5273 40.6258 16.8594 39.8094 17.6844Z" fill="#4C91CE"/>
</g>
</g>
</g>
</g>
<defs>
<clipPath id="clip0_16332_196">
<rect width="44" height="44" fill="white" transform="translate(0.625)"/>
</clipPath>
</defs>
</svg>
