<svg width="61" height="44" viewBox="0 0 61 44" fill="none" xmlns="http://www.w3.org/2000/svg">
<g id="fi_5811867">
<path id="Vector" d="M12.5849 32.5856C12.7068 32.7969 12.9077 32.951 13.1434 33.0141C13.379 33.0773 13.63 33.0442 13.8413 32.9223L17.824 30.6229C18.0352 30.5009 18.1894 30.3 18.2525 30.0644C18.3156 29.8288 18.2826 29.5777 18.1606 29.3664C18.0386 29.1552 17.8378 29.001 17.6021 28.9379C17.3665 28.8748 17.1155 28.9078 16.9042 29.0298L12.9215 31.3292C12.7103 31.4512 12.5561 31.652 12.493 31.8877C12.4299 32.1233 12.4629 32.3743 12.5849 32.5856Z" fill="#4C91CE"/>
<path id="Vector_2" d="M37.1449 16.2657L41.8596 13.5436L38.5683 12.2577L34.9688 14.3359L35.8885 15.929C36.0105 16.1403 36.2114 16.2944 36.447 16.3575C36.6826 16.4207 36.9337 16.3876 37.1449 16.2657Z" fill="#4C91CE"/>
<path id="Vector_3" d="M39.9616 8.27652C39.8396 8.06527 39.6387 7.91112 39.4031 7.84798C39.1674 7.78485 38.9164 7.8179 38.7051 7.93987L25.9606 15.2979C25.7493 15.4199 25.5952 15.6208 25.5321 15.8564C25.4689 16.092 25.502 16.3431 25.6239 16.5543C25.7459 16.7656 25.9468 16.9198 26.1824 16.9829C26.418 17.046 26.6691 17.013 26.8804 16.891L39.6249 9.53294C39.8362 9.41097 39.9903 9.21008 40.0534 8.97445C40.1166 8.73883 40.0835 8.48778 39.9616 8.27652Z" fill="#4C91CE"/>
<path id="Vector_4" d="M10.1683 37.5978C10.5001 38.1691 11.0258 38.6024 11.6499 38.8189C12.274 39.0354 12.9551 39.0209 13.5694 38.7778C20.1999 36.1604 30.5302 30.7113 48.1208 20.5554L49.475 19.7736C49.9508 19.5005 50.3679 19.1357 50.7019 18.7004C51.0359 18.2651 51.2803 17.7679 51.421 17.2375L52.1266 14.6169L50.0176 10.9639L38.0695 17.8621C37.4358 18.228 36.6826 18.3272 35.9758 18.1378C35.2689 17.9484 34.6662 17.4859 34.3003 16.8522L33.3805 15.2591L31.0977 16.5771L19.5744 28.1972C19.6373 28.2746 19.6956 28.3554 19.7493 28.4394C20.1152 29.0731 20.2143 29.8263 20.0249 30.5331C19.8355 31.24 19.3731 31.8427 18.7393 32.2086L14.7566 34.508C14.1229 34.8739 13.3697 34.973 12.6628 34.7836C11.956 34.5942 11.3533 34.1318 10.9874 33.498C10.6215 32.8643 10.5223 32.1111 10.7117 31.4042C10.9011 30.6974 11.3636 30.0947 11.9974 29.7288L12.7095 29.3177L8.67711 25.9702C8.25556 25.6213 7.72484 25.4316 7.17764 25.4342C6.63045 25.4368 6.10157 25.6315 5.68336 25.9844C5.26515 26.3373 4.98421 26.8259 4.88959 27.3649C4.79498 27.9038 4.8927 28.4589 5.16571 28.9331L10.1683 37.5978Z" fill="#4C91CE"/>
<path id="Vector_5" d="M50.8967 5.1424C50.7747 4.93115 50.5738 4.777 50.3382 4.71386C50.1026 4.65073 49.8515 4.68378 49.6403 4.80575C49.429 4.92771 49.2749 5.12861 49.2117 5.36423C49.1486 5.59985 49.1817 5.85091 49.3036 6.06216L50.6833 8.45176C51.2461 8.13119 51.8843 7.96657 52.532 7.97488L50.8967 5.1424Z" fill="#4C91CE"/>
<path id="Vector_6" d="M41.4425 32.9077C41.865 32.6637 42.1733 32.262 42.2996 31.7907C42.4259 31.3195 42.3598 30.8174 42.1158 30.3949L38.9297 32.2344C39.1736 32.6569 39.5754 32.9652 40.0467 33.0915C40.5179 33.2177 41.02 33.1516 41.4425 32.9077Z" fill="#4C91CE"/>
<path id="Vector_7" d="M49.0323 22.1457C48.5387 22.4312 48.1457 22.8626 47.9073 23.3806C47.6689 23.8986 47.5968 24.4778 47.701 25.0384L52.2038 22.4387C51.7715 22.0657 51.2335 21.837 50.665 21.7845C50.0964 21.7319 49.5256 21.8582 49.0323 22.1457Z" fill="#4C91CE"/>
<path id="Vector_8" d="M38.6807 28.1223C38.1871 28.4078 37.7941 28.8392 37.5557 29.3572C37.3173 29.8752 37.2453 30.4543 37.3495 31.015L41.8523 28.4153C41.4199 28.0423 40.882 27.8135 40.3134 27.761C39.7448 27.7085 39.174 27.8348 38.6807 28.1223Z" fill="#4C91CE"/>
<path id="Vector_9" d="M51.8019 26.9311C52.2244 26.6872 52.5327 26.2854 52.659 25.8142C52.7852 25.3429 52.7191 24.8408 52.4752 24.4183L49.2891 26.2578C49.533 26.6803 49.9348 26.9886 50.406 27.1149C50.8773 27.2412 51.3794 27.1751 51.8019 26.9311Z" fill="#4C91CE"/>
<path id="Vector_10" d="M51.6094 10.0469L53.4489 13.233C53.8714 12.9891 54.1797 12.5873 54.306 12.116C54.4322 11.6448 54.3661 11.1427 54.1222 10.7202C53.8783 10.2977 53.4765 9.98938 53.0052 9.86311C52.534 9.73684 52.0319 9.80294 51.6094 10.0469Z" fill="#4C91CE"/>
<path id="Vector_11" d="M55.7447 17.2075C55.8667 17.4187 56.0676 17.5729 56.3032 17.636C56.5388 17.6991 56.7899 17.6661 57.0011 17.5441C57.2124 17.4222 57.3665 17.2213 57.4297 16.9856C57.4928 16.75 57.4597 16.499 57.3378 16.2877L55.7024 13.4552C55.3858 14.0203 54.9241 14.4907 54.3651 14.8179L55.7447 17.2075Z" fill="#4C91CE"/>
</g>
</svg>
