<svg width="20" height="20" viewBox="0 0 20 20" fill="none" xmlns="http://www.w3.org/2000/svg">
<g clip-path="url(#clip0_3_44)">
<mask id="mask0_3_44" style="mask-type:luminance" maskUnits="userSpaceOnUse" x="0" y="0" width="20" height="20">
<path d="M0 0H20V20H0V0Z" fill="white"/>
</mask>
<g mask="url(#mask0_3_44)">
<path d="M7.37 19.68C6.88114 19.6742 6.40918 19.5003 6.03333 19.1877C5.65748 18.875 5.40062 18.4426 5.30587 17.963C5.21112 17.4834 5.28424 16.9857 5.51297 16.5537C5.74169 16.1216 6.11209 15.7813 6.562 15.59C6.94912 15.4301 7.37492 15.3885 7.78569 15.4703C8.19645 15.5522 8.57376 15.7539 8.87 16.05C9.264 16.45 9.486 16.988 9.49 17.55C9.49 18.1132 9.26697 18.6535 8.86967 19.0526C8.47238 19.4518 7.93317 19.6774 7.37 19.68ZM14.77 19.68C14.2811 19.6742 13.8092 19.5003 13.4333 19.1877C13.0575 18.875 12.8006 18.4426 12.7059 17.963C12.6111 17.4834 12.6842 16.9857 12.913 16.5537C13.1417 16.1216 13.5121 15.7813 13.962 15.59C14.3491 15.4301 14.7749 15.3885 15.1857 15.4703C15.5964 15.5522 15.9738 15.7539 16.27 16.05C16.664 16.45 16.886 16.988 16.89 17.55C16.89 18.1132 16.667 18.6535 16.2697 19.0526C15.8724 19.4518 15.3332 19.6774 14.77 19.68ZM0.989996 4.68001C0.825199 4.68045 0.662848 4.64016 0.517382 4.56271C0.371916 4.48526 0.247844 4.37307 0.156203 4.2361C0.064561 4.09913 0.00819009 3.94164 -0.0078965 3.77763C-0.0239831 3.61362 0.000713326 3.44818 0.0639962 3.29601C0.11384 3.17419 0.187243 3.0634 0.279996 2.97001C0.370596 2.8749 0.479048 2.79856 0.599156 2.74537C0.719264 2.69218 0.848675 2.66318 0.979996 2.66001H2.19C2.65789 2.65058 3.11427 2.80552 3.47971 3.09787C3.84515 3.39022 4.09649 3.80146 4.19 4.26001L5.51 10.26C5.6035 10.7186 5.85484 11.1298 6.22028 11.4222C6.58572 11.7145 7.0421 11.8694 7.51 11.86H15.45L16.98 5.73001H14.1C13.8383 5.72101 13.5905 5.60971 13.41 5.42001C13.316 5.32719 13.2414 5.21663 13.1905 5.09475C13.1396 4.97287 13.1134 4.8421 13.1134 4.71001C13.1134 4.57792 13.1396 4.44715 13.1905 4.32527C13.2414 4.2034 13.316 4.09284 13.41 4.00001C13.5905 3.81032 13.8383 3.69901 14.1 3.69001H16.98C17.2879 3.69283 17.5913 3.76432 17.8681 3.89925C18.1449 4.03419 18.3881 4.22918 18.58 4.47001C18.77 4.71801 18.902 5.00501 18.97 5.31001C19.0415 5.61251 19.0415 5.92751 18.97 6.23001L17.45 12.36C17.3403 12.8024 17.0827 13.194 16.72 13.47C16.3641 13.7509 15.9234 13.9025 15.47 13.9H7.53C6.60361 13.9014 5.70431 13.5876 4.98 13.01C4.26018 12.4218 3.75987 11.6079 3.56 10.7L2.23 4.70001L0.989996 4.68001ZM12.15 2.29001L10.37 2.14001C10.2886 2.13194 10.2108 2.10279 10.1442 2.05544C10.0775 2.00809 10.0244 1.94418 9.99 1.87001L9.29 0.230012C9.25433 0.151164 9.19668 0.0842734 9.12396 0.037356C9.05124 -0.00956148 8.96654 -0.0345154 8.88 -0.0345154C8.79346 -0.0345154 8.70875 -0.00956148 8.63603 0.037356C8.56331 0.0842734 8.50567 0.151164 8.47 0.230012L7.77 1.88001C7.73561 1.95418 7.68247 2.01809 7.61583 2.06544C7.54919 2.11279 7.47135 2.14194 7.39 2.15001L5.61 2.30001C5.5212 2.30661 5.43635 2.33941 5.3662 2.39425C5.29605 2.44909 5.24374 2.52351 5.21591 2.6081C5.18807 2.69268 5.18595 2.78362 5.20982 2.8694C5.23369 2.95519 5.28247 3.03196 5.35 3.09001L6.74 4.26001C6.8036 4.31403 6.85053 4.38501 6.87532 4.46469C6.90011 4.54437 6.90173 4.62945 6.88 4.71001L6.48 6.43001C6.46108 6.51489 6.46717 6.60343 6.49751 6.68492C6.52785 6.76641 6.58116 6.83737 6.65098 6.8892C6.7208 6.94104 6.80414 6.97153 6.89093 6.977C6.97771 6.98247 7.06422 6.96267 7.14 6.92001L8.68 5.99001C8.75024 5.95059 8.82944 5.92989 8.91 5.92989C8.99055 5.92989 9.06975 5.95059 9.14 5.99001L10.68 6.91001C10.7552 6.95464 10.8417 6.97641 10.929 6.97265C11.0164 6.9689 11.1007 6.93979 11.1718 6.88888C11.2429 6.83797 11.2976 6.76746 11.3292 6.68597C11.3608 6.60448 11.3681 6.51554 11.35 6.43001L10.95 4.70001C10.9281 4.61946 10.9297 4.53434 10.9545 4.45463C10.9793 4.37493 11.0263 4.30395 11.09 4.25001L12.44 3.10001C12.5021 3.0389 12.5451 2.96108 12.5638 2.87599C12.5826 2.7909 12.5762 2.70221 12.5455 2.62068C12.5148 2.53914 12.4611 2.46828 12.3909 2.41668C12.3206 2.36509 12.237 2.33498 12.15 2.33001V2.29001Z" fill="#FFB801"/>
</g>
</g>
<defs>
<clipPath id="clip0_3_44">
<rect width="20" height="20" fill="white"/>
</clipPath>
</defs>
</svg>
