<svg width="45" height="44" viewBox="0 0 45 44" fill="none" xmlns="http://www.w3.org/2000/svg">
<circle opacity="0.4" cx="22.374" cy="21.999" r="20.4287" fill="#002F59"/>
<path d="M22.3751 0C10.2443 0 0.375 9.86927 0.375 22.0001C0.375 34.1309 10.2443 44.0002 22.3749 44.0002C34.5057 44.0002 44.375 34.1309 44.375 22.0001C44.375 9.86927 34.5059 0 22.3751 0ZM20.6056 1.71285H24.0184V5.12566H20.6056V1.71285ZM37.7396 22.0001C37.7396 30.4722 30.847 37.3646 22.3751 37.3646C13.9032 37.3646 7.01083 30.472 7.01083 22.0001C7.01083 13.5282 13.9034 6.63564 22.3751 6.63564C30.847 6.63564 37.7396 13.5282 37.7396 22.0001ZM9.23654 6.44831L11.6498 8.86154L9.23654 11.2748L6.82331 8.86154L9.23654 6.44831ZM5.43752 23.7065H2.02471V20.2937H5.43752V23.7065ZM9.23654 37.5521L6.82331 35.1388L9.23654 32.7256L11.6498 35.1388L9.23654 37.5521ZM24.0184 42.2873H20.6056V38.8745H24.0184V42.2873ZM35.5136 37.5521L33.1004 35.1388L35.5136 32.7256L37.9269 35.1388L35.5136 37.5521ZM35.5136 11.2748L33.1004 8.86154L35.5136 6.44831L37.9269 8.86154L35.5136 11.2748ZM39.1864 23.7065V20.2937H42.5992V23.7065H39.1864Z" fill="url(#paint0_linear_16332_207)"/>
<path d="M9.85483 22.0001C9.85483 28.9038 15.4714 34.5205 22.3751 34.5205C29.2788 34.5205 34.8956 28.9038 34.8956 22.0001C34.8956 15.0964 29.2788 9.47964 22.3751 9.47964C15.4714 9.47964 9.85483 15.0964 9.85483 22.0001ZM28.3619 20.9387C28.9525 21.8992 29.1429 22.7536 29.1429 23.7685C29.1429 26.2769 27.3728 27.6255 25.3604 27.6255C23.9876 27.6255 23.2059 26.9769 22.7795 26.4373L23.5072 29.0153H21.2199L21.9314 26.4965C21.4917 27.0198 20.722 27.676 19.3993 27.676C17.3869 27.676 15.6071 26.3023 15.6071 23.7937C15.6071 22.7786 15.7927 21.899 16.3832 20.9385C17.3039 19.4405 22.3884 15.1286 22.3884 15.1286C22.3884 15.1286 27.4412 19.4407 28.3619 20.9387Z" fill="url(#paint1_linear_16332_207)"/>
<defs>
<linearGradient id="paint0_linear_16332_207" x1="22.375" y1="0" x2="22.375" y2="44.0002" gradientUnits="userSpaceOnUse">
<stop stop-color="#F95617"/>
<stop offset="1" stop-color="#F94915"/>
</linearGradient>
<linearGradient id="paint1_linear_16332_207" x1="22.375" y1="0" x2="22.375" y2="44.0002" gradientUnits="userSpaceOnUse">
<stop stop-color="#F95617"/>
<stop offset="1" stop-color="#F94915"/>
</linearGradient>
</defs>
</svg>
