<svg width="45" height="44" viewBox="0 0 45 44" fill="none" xmlns="http://www.w3.org/2000/svg">
<g id="fi_5509636">
<g id="Group">
<path id="Vector" fill-rule="evenodd" clip-rule="evenodd" d="M21.3048 1.5C15.989 1.5 11.6797 5.80925 11.6797 11.125C11.6797 16.4407 15.989 20.7499 21.3048 20.7499C26.6205 20.7499 30.9298 16.4407 30.9298 11.125C30.9298 5.80925 26.6205 1.5 21.3048 1.5Z" fill="#4C91CE"/>
<path id="Vector_2" fill-rule="evenodd" clip-rule="evenodd" d="M28.9379 22.1651C29.8287 21.1556 31.1366 20.5156 32.5923 20.5156H36.0905C38.7818 20.5156 40.9635 22.6975 40.9635 25.3888V37.6322C40.9635 40.3237 38.7818 42.5054 36.0905 42.5054H32.5923C31.1366 42.5054 29.8287 41.8653 28.9379 40.8559C28.4354 40.2867 28.4895 39.4177 29.0589 38.9151C29.6282 38.4126 30.4972 38.4669 30.9997 39.0361C31.3907 39.4793 31.9583 39.7554 32.5923 39.7554H36.0905C37.2631 39.7554 38.2135 38.8048 38.2135 37.6322V25.3888C38.2135 24.2162 37.2631 23.2656 36.0905 23.2656H32.5923C31.9583 23.2656 31.3907 23.5417 30.9997 23.9848C30.4972 24.5541 29.6282 24.6084 29.0589 24.1058C28.4895 23.6033 28.4354 22.7343 28.9379 22.1651Z" fill="#4C91CE"/>
<path id="Vector_3" fill-rule="evenodd" clip-rule="evenodd" d="M33.014 30.5434C33.551 31.0803 33.551 31.9508 33.014 32.4878L29.3474 36.1545C28.8104 36.6914 27.9397 36.6914 27.4027 36.1545C26.8658 35.6175 26.8658 34.747 27.4027 34.21L31.0694 30.5434C31.6064 30.0064 32.477 30.0064 33.014 30.5434Z" fill="#4C91CE"/>
<path id="Vector_4" fill-rule="evenodd" clip-rule="evenodd" d="M33.014 32.4826C33.551 31.9456 33.551 31.0751 33.014 30.5382L29.3474 26.8715C28.8104 26.3345 27.9397 26.3345 27.4027 26.8715C26.8658 27.4085 26.8658 28.2789 27.4027 28.8159L31.0694 32.4826C31.6064 33.0196 32.477 33.0196 33.014 32.4826Z" fill="#4C91CE"/>
<path id="Vector_5" fill-rule="evenodd" clip-rule="evenodd" d="M20.5781 31.5156C20.5781 30.7563 21.1936 30.1406 21.9531 30.1406H31.1198C31.8792 30.1406 32.4948 30.7563 32.4948 31.5156C32.4948 32.275 31.8792 32.8906 31.1198 32.8906H21.9531C21.1936 32.8906 20.5781 32.275 20.5781 31.5156Z" fill="#4C91CE"/>
</g>
<path id="Vector_6" d="M25.3981 24.9684C18.4404 24.1158 11.2832 25.3808 4.9176 28.7634C3.92505 29.2909 3.30469 30.3231 3.30469 31.4471V38.1789C3.30469 39.9508 4.7411 41.3872 6.51302 41.3872H26.1031C25.7667 40.4874 25.7579 39.4993 26.0657 38.6006C25.8463 38.4533 25.6378 38.2828 25.444 38.0889C24.7552 37.4001 24.3611 36.5285 24.2612 35.6304H21.9442C19.6659 35.6304 17.8191 33.7835 17.8191 31.5054C17.8191 29.2273 19.6659 27.3804 21.9442 27.3804H24.2612C24.3587 26.5024 24.7378 25.6497 25.3981 24.9684Z" fill="#4C91CE"/>
</g>
</svg>
