<svg width="173" height="146" viewBox="0 0 173 146" fill="none" xmlns="http://www.w3.org/2000/svg">
<g clip-path="url(#clip0_1155_504)">
<path d="M24.5781 77.9844H125.203V147.793C125.203 149.294 124.607 150.734 123.545 151.795C122.484 152.857 121.044 153.453 119.543 153.453H30.2383C28.7371 153.453 27.2974 152.857 26.2359 151.795C25.1745 150.734 24.5781 149.294 24.5781 147.793V77.9844Z" fill="#EE9D0D"/>
<path d="M125.203 79.9025V114.307L86.2734 77.9844H123.146L125.203 79.9025Z" fill="#C7830B"/>
<path d="M125.203 105.656V114.307L115.933 105.656H125.203Z" fill="#C7830B"/>
<path d="M100.33 10.8555L98.9882 11.3548C97.0123 12.0903 95.2348 13.2758 93.7965 14.8172C92.3582 16.3587 91.2985 18.2139 90.7014 20.2359L89.4382 24.5125L87.3918 25.6282C84.228 27.3494 81.8775 30.257 80.8574 33.7112L104.769 56.0216L118.498 41.3052L119.204 24.5672C119.289 22.5492 118.937 20.5366 118.171 18.6677C117.405 16.7987 116.244 15.1176 114.767 13.7396C112.866 11.9657 110.508 10.7563 107.958 10.2469C105.408 9.73749 102.767 9.94822 100.33 10.8555Z" fill="#EA2B2D"/>
<path d="M164.847 71.0535L164.442 72.4264C163.845 74.4484 162.785 76.3036 161.347 77.8451C159.909 79.3866 158.131 80.572 156.155 81.3075L151.976 82.8634L151.006 84.9822C150.264 86.604 149.21 88.0638 147.904 89.2782C146.598 90.4926 145.066 91.4378 143.394 92.0599L119.483 69.7498L133.213 55.0352L149.862 53.1727C151.869 52.9482 153.901 53.1606 155.819 53.7954C157.736 54.4302 159.494 55.4723 160.971 56.8503C162.872 58.6243 164.242 60.8927 164.926 63.4013C165.611 65.9099 165.583 68.5596 164.847 71.0535Z" fill="#EA2B2D"/>
<path d="M64.8281 77.9844H84.9531V153.453H64.8281V77.9844Z" fill="#CB2527"/>
<path d="M24.5781 105.656H125.203V125.781H24.5781V105.656Z" fill="#EA2B2D"/>
<path d="M125.203 105.656V114.307L115.933 105.656H125.203Z" fill="#CB2527"/>
<path d="M73.9657 27.2572L150.281 98.4569C151.378 99.4807 152.024 100.899 152.076 102.398C152.128 103.898 151.582 105.357 150.558 106.455L137.262 120.706L52.6716 41.7862L65.9679 27.5345C66.9917 26.4372 68.4095 25.7915 69.9094 25.7395C71.4092 25.6875 72.8683 26.2334 73.9657 27.2572Z" fill="#EE9D0D"/>
<path d="M102.929 54.2788L121.318 71.4354L104.161 89.8246L85.7721 72.668L102.929 54.2788Z" fill="#CB2527"/>
<path d="M111.636 51.1789C111.249 51.1795 110.868 51.091 110.522 50.9203C110.176 50.7497 109.873 50.5015 109.638 50.1949L107.98 48.0347C102.655 41.1254 100.21 32.4231 101.16 23.7516C101.194 23.4227 101.294 23.1038 101.452 22.8132C101.61 22.5226 101.824 22.2661 102.081 22.0583C102.338 21.8505 102.634 21.6955 102.952 21.6022C103.269 21.5088 103.602 21.479 103.931 21.5145C104.26 21.5499 104.578 21.6498 104.868 21.8086C105.159 21.9673 105.415 22.1817 105.622 22.4396C105.829 22.6974 105.984 22.9936 106.076 23.3112C106.169 23.6287 106.198 23.9615 106.162 24.2903C105.354 31.6752 107.435 39.0864 111.97 44.9706L113.629 47.1309C113.915 47.5032 114.091 47.9482 114.137 48.4154C114.183 48.8826 114.098 49.3534 113.891 49.7746C113.683 50.1958 113.362 50.5505 112.964 50.7987C112.565 51.0468 112.105 51.1785 111.636 51.1789Z" fill="#CB2527"/>
<path d="M104.769 56.0205L104.665 56.0592C94.2953 59.9191 83.2589 61.6674 72.2043 61.2014L65.7812 60.9304L76.8186 71.2275L73.6328 82.0173L83.69 78.763C93.3319 75.6435 102.321 70.7848 110.213 64.4274L112.128 62.885L104.769 56.0205Z" fill="#EA2B2D"/>
<path d="M145.926 71.6504C139.272 71.6493 132.768 69.6815 127.229 65.9944L124.959 64.4888C124.407 64.1185 124.023 63.5446 123.893 62.8924C123.762 62.2402 123.895 61.5629 124.263 61.0086C124.631 60.4543 125.203 60.0681 125.854 59.9346C126.506 59.801 127.184 59.9309 127.74 60.2959L130.01 61.8015C136.194 65.9184 143.731 67.4821 151.042 66.1648C151.368 66.1045 151.703 66.1093 152.028 66.179C152.352 66.2486 152.659 66.3817 152.932 66.5705C153.205 66.7593 153.437 67.0002 153.616 67.2793C153.796 67.5584 153.918 67.8702 153.976 68.1967C154.034 68.5232 154.027 68.8581 153.956 69.1819C153.884 69.5057 153.749 69.8122 153.559 70.0837C153.368 70.3552 153.126 70.5863 152.846 70.7638C152.565 70.9412 152.253 71.0615 151.926 71.1178C149.945 71.4717 147.938 71.6499 145.926 71.6504Z" fill="#CB2527"/>
<path d="M119.484 69.7497L119.452 69.8563C116.319 80.4678 115.338 91.5985 116.568 102.594L117.283 108.983L106.245 98.6863L95.7021 102.611L98.2524 92.3529C100.697 82.5181 104.923 73.2141 110.719 64.9012L112.125 62.8843L119.484 69.7497Z" fill="#EA2B2D"/>
<path d="M52.25 20.125C55.0287 20.125 57.2812 17.8724 57.2812 15.0938C57.2812 12.3151 55.0287 10.0625 52.25 10.0625C49.4713 10.0625 47.2188 12.3151 47.2188 15.0938C47.2188 17.8724 49.4713 20.125 52.25 20.125Z" fill="#6699CE"/>
<path d="M24.5781 77.9844C27.3568 77.9844 29.6094 75.7318 29.6094 72.9531C29.6094 70.1744 27.3568 67.9219 24.5781 67.9219C21.7994 67.9219 19.5469 70.1744 19.5469 72.9531C19.5469 75.7318 21.7994 77.9844 24.5781 77.9844Z" fill="#FAA6B2"/>
<path d="M34.6406 22.6406C34.1127 22.6405 33.5982 22.4743 33.1699 22.1655C32.7417 21.8568 32.4214 21.4211 32.2546 20.9203L32.125 20.5338C31.5984 18.9489 30.5858 17.5703 29.231 16.5937C27.8762 15.6171 26.2482 15.0923 24.5781 15.0938C23.9109 15.0938 23.2711 14.8287 22.7993 14.3569C22.3275 13.8852 22.0625 13.2453 22.0625 12.5781C22.0625 11.9109 22.3275 11.2711 22.7993 10.7993C23.2711 10.3275 23.9109 10.0625 24.5781 10.0625C27.3044 10.06 29.9621 10.9166 32.1737 12.5107C34.3853 14.1047 36.0384 16.3552 36.8981 18.9423L37.027 19.3291C37.1527 19.7073 37.1868 20.1099 37.1266 20.5038C37.0663 20.8977 36.9134 21.2717 36.6804 21.595C36.4474 21.9183 36.141 22.1816 35.7864 22.3634C35.4318 22.5452 35.0391 22.6402 34.6406 22.6406Z" fill="#A6DEFF"/>
<path d="M47.2164 67.0372C46.7319 67.0373 46.2577 66.8968 45.8514 66.6328L45.353 66.3102C44.4777 65.739 43.46 65.4245 42.4151 65.4023C41.3702 65.3801 40.34 65.651 39.4413 66.1844C39.1566 66.3521 38.8418 66.4621 38.5146 66.5081C38.1875 66.5542 37.8545 66.5353 37.5346 66.4526C37.2148 66.37 36.9143 66.2251 36.6505 66.0264C36.3866 65.8276 36.1645 65.5788 35.9967 65.2942C35.829 65.0095 35.719 64.6947 35.673 64.3675C35.6269 64.0404 35.6458 63.7074 35.7285 63.3875C35.8111 63.0677 35.956 62.7672 36.1548 62.5034C36.3535 62.2395 36.6023 62.0174 36.887 61.8496C38.5897 60.8383 40.5418 60.3244 42.5218 60.3661C44.5017 60.4079 46.4304 61.0036 48.089 62.0858L48.5874 62.4084C49.0435 62.7034 49.3918 63.1381 49.5803 63.6475C49.7688 64.1569 49.7874 64.7136 49.6333 65.2344C49.4791 65.7552 49.1606 66.2122 48.7253 66.537C48.2899 66.8617 47.7611 67.0369 47.218 67.0362L47.2164 67.0372Z" fill="#A6DEFF"/>
<path d="M29.6647 26.7729L37.433 33.9044L47.7115 31.5479L43.3296 41.1397L48.7467 50.1868L38.2707 48.9834L31.3401 56.9312L29.2474 46.5961L19.5469 42.4607L28.7295 37.2766L29.6647 26.7729Z" fill="#EEB436"/>
<path d="M60.498 72.7954L57.9119 82.9707L64.828 90.8695L54.3514 91.5544L48.9764 100.573L45.0876 90.8208L34.8496 88.4957L42.9226 81.7837L41.9704 71.3281L50.8484 76.932L60.498 72.7954Z" fill="#EEB436"/>
<path d="M119.483 69.7499L104.769 56.0206L118.498 41.3042C121.848 42.2935 124.922 44.0492 127.476 46.4323C130.03 48.8153 131.994 51.7602 133.212 55.0339L119.483 69.7499Z" fill="#F72D2F"/>
</g>
<rect y="108" width="173" height="38" rx="19" fill="url(#paint0_linear_1155_504)"/>
<path d="M31.1992 120.869C31.3945 121.037 31.5508 121.246 31.668 121.496C31.7852 121.742 31.8438 122.043 31.8438 122.398C31.8438 123.27 31.5078 123.949 30.8359 124.438C30.168 124.926 29.207 125.17 27.9531 125.17C27.3828 125.17 26.8379 125.119 26.3184 125.018C25.8027 124.916 25.3301 124.777 24.9004 124.602V122.65H25.0996C25.3926 122.854 25.7773 123.053 26.2539 123.248C26.7344 123.439 27.2031 123.535 27.6602 123.535C28.25 123.535 28.7188 123.43 29.0664 123.219C29.4141 123.008 29.5879 122.684 29.5879 122.246C29.5879 121.867 29.4609 121.588 29.207 121.408C28.9531 121.225 28.4961 121.133 27.8359 121.133H26.582V119.574H27.7773C28.3242 119.574 28.7246 119.492 28.9785 119.328C29.2324 119.16 29.3594 118.91 29.3594 118.578C29.3594 118.285 29.2188 118.072 28.9375 117.939C28.6602 117.807 28.2891 117.74 27.8242 117.74C27.5625 117.74 27.3125 117.768 27.0742 117.822C26.8398 117.877 26.6094 117.945 26.3828 118.027C26.1719 118.105 25.9766 118.191 25.7969 118.285C25.6211 118.379 25.4863 118.449 25.3926 118.496H25.1875V116.68C25.4414 116.574 25.8555 116.453 26.4297 116.316C27.0078 116.176 27.6133 116.105 28.2461 116.105C29.3711 116.105 30.2129 116.293 30.7715 116.668C31.3301 117.039 31.6094 117.557 31.6094 118.221C31.6094 118.717 31.4551 119.145 31.1465 119.504C30.8418 119.863 30.4473 120.104 29.9629 120.225V120.312C30.1426 120.344 30.3516 120.408 30.5898 120.506C30.8281 120.604 31.0312 120.725 31.1992 120.869ZM32.248 125L35.1953 116.275H37.5859L40.5332 125H38.2773L37.7324 123.219H34.9902L34.4453 125H32.248ZM37.252 121.637L36.3613 118.76L35.4707 121.637H37.252ZM48.4023 122.211C48.4023 122.637 48.3203 123.029 48.1562 123.389C47.9961 123.744 47.7754 124.035 47.4941 124.262C47.1582 124.531 46.7949 124.723 46.4043 124.836C46.0176 124.945 45.5449 125 44.9863 125H41.4004V116.275H47.7402V117.939H43.5801V119.551H45.0215C45.5449 119.551 46.0137 119.59 46.4277 119.668C46.8418 119.742 47.2129 119.908 47.541 120.166C47.8418 120.4 48.0605 120.695 48.1973 121.051C48.334 121.402 48.4023 121.789 48.4023 122.211ZM46.1406 122.275C46.1406 122.131 46.125 121.994 46.0938 121.865C46.0625 121.736 45.9941 121.617 45.8887 121.508C45.7832 121.402 45.6387 121.318 45.4551 121.256C45.2715 121.193 45.0176 121.162 44.6934 121.162H43.5801V123.383H44.6934C45.1426 123.383 45.4961 123.287 45.7539 123.096C46.0117 122.904 46.1406 122.631 46.1406 122.275ZM57.1738 125H55.0176V119.252L51.666 125H49.6387V116.275H51.7949V121.473L54.8945 116.275H57.1738V125ZM65.6582 119.029C65.6582 119.436 65.5938 119.822 65.4648 120.189C65.3359 120.557 65.1504 120.863 64.9082 121.109C64.7598 121.262 64.5957 121.402 64.416 121.531C64.2402 121.66 64.0449 121.77 63.8301 121.859C63.6152 121.949 63.3809 122.02 63.127 122.07C62.877 122.121 62.5957 122.146 62.2832 122.146H61.1348V125H58.9434V116.275H62.3301C62.834 116.275 63.2676 116.322 63.6309 116.416C63.998 116.506 64.3301 116.65 64.627 116.85C64.9551 117.068 65.209 117.361 65.3887 117.729C65.5684 118.092 65.6582 118.525 65.6582 119.029ZM63.4082 119.082C63.4082 118.836 63.3496 118.625 63.2324 118.449C63.1152 118.27 62.9746 118.146 62.8105 118.08C62.6035 117.99 62.4043 117.939 62.2129 117.928C62.0254 117.912 61.7695 117.904 61.4453 117.904H61.1348V120.518H61.2871C61.4941 120.518 61.6895 120.516 61.873 120.512C62.0566 120.508 62.2168 120.494 62.3535 120.471C62.4707 120.451 62.5938 120.414 62.7227 120.359C62.8555 120.301 62.957 120.236 63.0273 120.166C63.1758 120.021 63.2754 119.871 63.3262 119.715C63.3809 119.559 63.4082 119.348 63.4082 119.082ZM65.8926 125L68.8398 116.275H71.2305L74.1777 125H71.9219L71.377 123.219H68.6348L68.0898 125H65.8926ZM70.8965 121.637L70.0059 118.76L69.1152 121.637H70.8965ZM82.5801 125H80.4238V119.252L77.0723 125H75.0449V116.275H77.2012V121.473L80.3008 116.275H82.5801V125ZM81.918 113.398C81.9141 114.102 81.6602 114.664 81.1562 115.086C80.6562 115.508 79.8789 115.719 78.8242 115.719C77.7891 115.719 77.0156 115.506 76.5039 115.08C75.9922 114.65 75.7344 114.09 75.7305 113.398H77.6523C77.6602 113.824 77.75 114.135 77.9219 114.33C78.0938 114.521 78.3945 114.617 78.8242 114.617C79.2539 114.617 79.5547 114.52 79.7266 114.324C79.8984 114.129 79.9883 113.82 79.9961 113.398H81.918ZM95.2305 125H93.0391V117.939H90.0566V125H87.8652V116.275H95.2305V125ZM104.986 120.641C104.986 122.051 104.609 123.16 103.855 123.969C103.102 124.777 102.068 125.182 100.756 125.182C99.4395 125.182 98.4062 124.773 97.6562 123.957C96.9062 123.137 96.5312 122.031 96.5312 120.641C96.5312 119.238 96.9062 118.131 97.6562 117.318C98.4062 116.502 99.4395 116.094 100.756 116.094C102.068 116.094 103.102 116.5 103.855 117.312C104.609 118.121 104.986 119.23 104.986 120.641ZM102.725 120.635C102.725 120.115 102.67 119.674 102.561 119.311C102.455 118.943 102.312 118.643 102.133 118.408C101.945 118.17 101.732 118 101.494 117.898C101.26 117.793 101.016 117.74 100.762 117.74C100.492 117.74 100.248 117.789 100.029 117.887C99.8105 117.98 99.5996 118.15 99.3965 118.396C99.2168 118.623 99.0703 118.924 98.957 119.299C98.8477 119.674 98.793 120.121 98.793 120.641C98.793 121.176 98.8457 121.621 98.9512 121.977C99.0566 122.328 99.2012 122.623 99.3848 122.861C99.5723 123.104 99.7852 123.277 100.023 123.383C100.262 123.484 100.508 123.535 100.762 123.535C101.02 123.535 101.27 123.48 101.512 123.371C101.754 123.258 101.963 123.084 102.139 122.85C102.326 122.596 102.471 122.301 102.572 121.965C102.674 121.625 102.725 121.182 102.725 120.635ZM114.35 127.004H112.34V124.971H107.465V127.004H105.455V123.33H106.041C106.451 122.479 106.775 121.443 107.014 120.225C107.252 119.002 107.371 117.686 107.371 116.275H113.523V123.33H114.35V127.004ZM111.332 123.33V117.939H109.422C109.348 118.994 109.201 119.984 108.982 120.91C108.764 121.832 108.488 122.639 108.156 123.33H111.332ZM114.561 125L117.508 116.275H119.898L122.846 125H120.59L120.045 123.219H117.303L116.758 125H114.561ZM119.564 121.637L118.674 118.76L117.783 121.637H119.564ZM130.428 119.029C130.428 119.436 130.363 119.822 130.234 120.189C130.105 120.557 129.92 120.863 129.678 121.109C129.529 121.262 129.365 121.402 129.186 121.531C129.01 121.66 128.814 121.77 128.6 121.859C128.385 121.949 128.15 122.02 127.896 122.07C127.646 122.121 127.365 122.146 127.053 122.146H125.904V125H123.713V116.275H127.1C127.604 116.275 128.037 116.322 128.4 116.416C128.768 116.506 129.1 116.65 129.396 116.85C129.725 117.068 129.979 117.361 130.158 117.729C130.338 118.092 130.428 118.525 130.428 119.029ZM128.178 119.082C128.178 118.836 128.119 118.625 128.002 118.449C127.885 118.27 127.744 118.146 127.58 118.08C127.373 117.99 127.174 117.939 126.982 117.928C126.795 117.912 126.539 117.904 126.215 117.904H125.904V120.518H126.057C126.264 120.518 126.459 120.516 126.643 120.512C126.826 120.508 126.986 120.494 127.123 120.471C127.24 120.451 127.363 120.414 127.492 120.359C127.625 120.301 127.727 120.236 127.797 120.166C127.945 120.021 128.045 119.871 128.096 119.715C128.15 119.559 128.178 119.348 128.178 119.082ZM139.545 120.641C139.545 122.051 139.168 123.16 138.414 123.969C137.66 124.777 136.627 125.182 135.314 125.182C133.998 125.182 132.965 124.773 132.215 123.957C131.465 123.137 131.09 122.031 131.09 120.641C131.09 119.238 131.465 118.131 132.215 117.318C132.965 116.502 133.998 116.094 135.314 116.094C136.627 116.094 137.66 116.5 138.414 117.312C139.168 118.121 139.545 119.23 139.545 120.641ZM137.283 120.635C137.283 120.115 137.229 119.674 137.119 119.311C137.014 118.943 136.871 118.643 136.691 118.408C136.504 118.17 136.291 118 136.053 117.898C135.818 117.793 135.574 117.74 135.32 117.74C135.051 117.74 134.807 117.789 134.588 117.887C134.369 117.98 134.158 118.15 133.955 118.396C133.775 118.623 133.629 118.924 133.516 119.299C133.406 119.674 133.352 120.121 133.352 120.641C133.352 121.176 133.404 121.621 133.51 121.977C133.615 122.328 133.76 122.623 133.943 122.861C134.131 123.104 134.344 123.277 134.582 123.383C134.82 123.484 135.066 123.535 135.32 123.535C135.578 123.535 135.828 123.48 136.07 123.371C136.312 123.258 136.521 123.084 136.697 122.85C136.885 122.596 137.029 122.301 137.131 121.965C137.232 121.625 137.283 121.182 137.283 120.635ZM148.539 125H145.926L143.588 121.479H143.037V125H140.846V116.275H143.037V119.832C143.381 119.816 143.637 119.74 143.805 119.604C143.977 119.467 144.18 119.166 144.414 118.701C144.48 118.564 144.557 118.402 144.643 118.215C144.732 118.027 144.811 117.863 144.877 117.723C145.131 117.195 145.439 116.82 145.803 116.598C146.17 116.371 146.652 116.258 147.25 116.258C147.445 116.258 147.607 116.262 147.736 116.27C147.865 116.273 147.965 116.275 148.035 116.275V118.145H147.531C147.281 118.145 147.062 118.223 146.875 118.379C146.691 118.531 146.504 118.838 146.312 119.299C146.16 119.666 146.016 119.945 145.879 120.137C145.746 120.324 145.621 120.451 145.504 120.518L148.539 125ZM53.4941 136.328C53.4941 136.762 53.4121 137.143 53.248 137.471C53.084 137.799 52.8633 138.07 52.5859 138.285C52.2578 138.543 51.8965 138.727 51.502 138.836C51.1113 138.945 50.6133 139 50.0078 139H46.5156V130.275H49.5977C50.2383 130.275 50.7227 130.301 51.0508 130.352C51.3828 130.398 51.6934 130.5 51.9824 130.656C52.2949 130.824 52.5273 131.049 52.6797 131.33C52.8359 131.611 52.9141 131.936 52.9141 132.303C52.9141 132.729 52.8066 133.107 52.5918 133.439C52.3809 133.771 52.0879 134.016 51.7129 134.172V134.219C52.252 134.332 52.6836 134.564 53.0078 134.916C53.332 135.264 53.4941 135.734 53.4941 136.328ZM50.6875 132.742C50.6875 132.602 50.6504 132.457 50.5762 132.309C50.5059 132.16 50.3945 132.053 50.2422 131.986C50.0977 131.924 49.9258 131.891 49.7266 131.887C49.5312 131.879 49.2383 131.875 48.8477 131.875H48.6953V133.721H48.9707C49.3457 133.721 49.6074 133.717 49.7559 133.709C49.9082 133.701 50.0645 133.66 50.2246 133.586C50.4004 133.504 50.5215 133.391 50.5879 133.246C50.6543 133.102 50.6875 132.934 50.6875 132.742ZM51.2383 136.287C51.2383 136.018 51.1836 135.807 51.0742 135.654C50.9648 135.502 50.8008 135.387 50.582 135.309C50.4492 135.258 50.2656 135.23 50.0312 135.227C49.8008 135.219 49.4902 135.215 49.0996 135.215H48.6953V137.4H48.8125C49.3828 137.4 49.7773 137.396 49.9961 137.389C50.2148 137.381 50.4375 137.328 50.6641 137.23C50.8633 137.145 51.0078 137.02 51.0977 136.855C51.1914 136.688 51.2383 136.498 51.2383 136.287ZM59.9453 139V131.939H57.3672V130.275H64.7148V131.939H62.1367V139H59.9453ZM71.5 131.939H67.8086V139H65.6172V130.275H71.5V131.939ZM76.0293 135.965H72.1445V134.336H76.0293V135.965ZM85.2754 139H82.6621L80.3242 135.479H79.7734V139H77.582V130.275H79.7734V133.832C80.1172 133.816 80.373 133.74 80.541 133.604C80.7129 133.467 80.916 133.166 81.1504 132.701C81.2168 132.564 81.293 132.402 81.3789 132.215C81.4688 132.027 81.5469 131.863 81.6133 131.723C81.8672 131.195 82.1758 130.82 82.5391 130.598C82.9062 130.371 83.3887 130.258 83.9863 130.258C84.1816 130.258 84.3438 130.262 84.4727 130.27C84.6016 130.273 84.7012 130.275 84.7715 130.275V132.145H84.2676C84.0176 132.145 83.7988 132.223 83.6113 132.379C83.4277 132.531 83.2402 132.838 83.0488 133.299C82.8965 133.666 82.752 133.945 82.6152 134.137C82.4824 134.324 82.3574 134.451 82.2402 134.518L85.2754 139ZM85.0469 139L87.9941 130.275H90.3848L93.332 139H91.0762L90.5312 137.219H87.7891L87.2441 139H85.0469ZM90.0508 135.637L89.1602 132.76L88.2695 135.637H90.0508ZM101.564 139H99.373V135.133H96.3906V139H94.1992V130.275H96.3906V133.469H99.373V130.275H101.564V139ZM102.438 139L105.385 130.275H107.775L110.723 139H108.467L107.922 137.219H105.18L104.635 139H102.438ZM107.441 135.637L106.551 132.76L105.66 135.637H107.441ZM119.102 139H116.91V131.939H114.707C114.691 132.279 114.676 132.598 114.66 132.895C114.648 133.188 114.635 133.467 114.619 133.732C114.576 134.494 114.506 135.152 114.408 135.707C114.311 136.258 114.199 136.709 114.074 137.061C113.938 137.436 113.799 137.73 113.658 137.945C113.518 138.16 113.385 138.33 113.26 138.455C113.072 138.643 112.838 138.791 112.557 138.9C112.275 139.006 111.998 139.059 111.725 139.059C111.541 139.059 111.34 139.051 111.121 139.035C110.902 139.02 110.764 139.008 110.705 139V137.072H110.787C110.826 137.076 110.863 137.08 110.898 137.084C110.938 137.088 110.986 137.09 111.045 137.09C111.143 137.09 111.268 137.074 111.42 137.043C111.572 137.012 111.688 136.959 111.766 136.885C112.047 136.619 112.238 136.209 112.34 135.654C112.445 135.096 112.525 134.291 112.58 133.24C112.604 132.76 112.617 132.328 112.621 131.945C112.629 131.562 112.645 131.006 112.668 130.275H119.102V139ZM120.906 139V130.275H126.807V131.939H123.086V133.469H126.514V135.133H123.086V137.336H126.807V139H120.906Z" fill="white"/>
<defs>
<linearGradient id="paint0_linear_1155_504" x1="86.5" y1="108" x2="86.5" y2="146" gradientUnits="userSpaceOnUse">
<stop stop-color="#38A8FA"/>
<stop offset="1" stop-color="#0073C7"/>
</linearGradient>
<clipPath id="clip0_1155_504">
<path d="M0 10C0 4.47716 4.47715 0 10 0H163C168.523 0 173 4.47715 173 10V117.705H0V10Z" fill="white"/>
</clipPath>
</defs>
</svg>
