<svg width="447" height="220" viewBox="0 0 447 220" fill="none" xmlns="http://www.w3.org/2000/svg">
<g clip-path="url(#clip0_611_596)">
<mask id="mask0_611_596" style="mask-type:luminance" maskUnits="userSpaceOnUse" x="0" y="-364" width="447" height="584">
<path d="M447 -363.907H0V219.989H447V-363.907Z" fill="white"/>
</mask>
<g mask="url(#mask0_611_596)">
<path d="M97.7965 202.05C97.7965 191.314 104.572 183.963 114.978 183.963C123.089 183.963 129.246 188.457 130.586 195.177H126.388C125.005 190.73 120.47 187.736 115.03 187.736C107.107 187.736 102.046 193.493 102.046 202.05C102.046 210.654 107.153 216.306 115.124 216.306C122.236 216.306 127.437 211.765 127.484 205.191L127.817 204.997H112.261V201.613H131.448C131.542 202.434 131.64 203.208 131.64 204.123C131.64 213.596 125.052 219.98 115.128 219.98C104.572 219.985 97.7965 212.832 97.7965 202.05ZM137.98 184.451H162.223V188.22H142.037V200.161H160.793V203.739H142.037V215.727H162.223V219.496H137.98V184.451ZM307.118 184.451V219.496H302.723L283.301 190.783V219.496H279.244V184.451H283.634L303.06 213.022V184.451H307.118ZM340.577 184.451L327.978 202.923V219.496H323.925V202.923L311.134 184.451H315.861L325.977 199.871L336.047 184.451H340.577ZM201.595 184.451H206.271L219.442 205.576L232.421 184.451H237.051V219.496H232.998V190.493L220.398 210.896H218.44L205.653 190.474V219.496H201.595V184.451ZM184.512 205.092C191.287 204.997 195.729 201.181 195.729 194.745C195.729 188.656 191.292 184.451 184.226 184.451H168.81V219.496H172.868V188.22H183.893C188.476 188.22 191.479 190.64 191.479 194.94C191.479 199.045 188.808 201.807 183.893 201.807H176.734L191.671 219.496H196.778L184.512 205.092ZM260.3 184.451H255.479L241.834 219.496H246.272L248.282 214.19L252.55 202.709H252.578L257.915 188.514L265.033 207.412H254.64L255.202 210.801H266.27L269.563 219.496H274.094L260.3 184.451ZM57.8336 100.068H73.5348V139.915C73.5348 146.982 77.9813 150.784 84.5224 150.784C91.7615 150.784 95.5099 146.455 95.5099 139.915V100.068H111.122V140.528C111.122 155.368 101.442 164.998 84.5224 164.998C68.3854 164.998 57.8336 155.99 57.8336 140.528V100.068ZM350.281 132.07C350.281 153.959 341.472 164.955 327.256 164.955C311.818 164.955 304.054 152.606 304.054 131.8C304.054 110.092 312.694 99.1902 327.256 99.1902C342.255 99.1902 350.281 111.349 350.281 132.07ZM338.68 132.07C338.68 116.394 334.753 109.19 327.256 109.19C319.235 109.19 315.744 117.476 315.744 131.8C315.744 147.661 319.666 154.86 327.256 154.86C335.194 154.86 338.68 146.574 338.68 132.07ZM0 164.12H45.5247V150.428H15.7012V138.672H42.9101V125.777H15.7012V113.846H45.5293V100.063H0L0 164.12ZM177.839 121.007C177.839 108.995 169.555 100.068 153.943 100.068H123.417V164.12H139.114V114.297H152.458C157.776 114.297 161.351 116.95 161.351 122.246C161.351 127.191 158.385 132.64 152.458 132.64H145.233L157.162 164.12H173.983L162.443 143.057C172.128 141.031 177.839 131.344 177.839 121.007ZM235.992 131.586C235.992 141.894 230.795 148.966 222.554 150.461L224.718 164.656C241.764 162.425 252.714 149.758 252.714 131.586C252.714 111.601 239.351 98.2505 219.185 98.2505C199.013 98.2505 185.655 111.601 185.655 131.586C185.655 149.758 196.605 162.425 213.651 164.656L215.816 150.461C207.574 148.971 202.378 141.894 202.378 131.586C202.378 120.11 209.012 112.408 219.185 112.408C229.357 112.408 235.992 120.11 235.992 131.586ZM438.369 138.947V100.073H423.451L396.794 140.452V148.843H419.608L421.117 138.952H409.174L427.265 110.884L427.274 110.856V110.875L427.293 110.856V138.952H427.283V148.843H427.293V164.129H438.365V148.843H447V138.952L438.369 138.947ZM275.374 154.139C275.374 154.139 281.971 148.04 284.164 146.009C294.472 136.479 300.361 127.775 300.361 118.625C300.361 107.315 291.928 99.1855 278.935 99.1855C265.764 99.1855 257.348 107.396 257.601 120.21L268.331 120.832C267.984 114.026 271.775 109.081 278.405 109.081C284.768 109.081 288.933 113.143 288.76 119.503C288.587 125.687 284.009 131.98 276.662 138.942C271.948 143.399 257.957 155.539 257.957 155.539V164.12H300.896V154.134L275.374 154.139ZM370.809 154.139C370.809 154.139 377.401 148.04 379.599 146.009C389.902 136.479 395.796 127.775 395.796 118.625C395.796 107.315 387.358 99.1855 374.365 99.1855C361.194 99.1855 352.779 107.396 353.036 120.21L363.766 120.832C363.419 114.026 367.21 109.081 373.84 109.081C380.203 109.081 384.364 113.143 384.19 119.503C384.017 125.687 379.439 131.98 372.092 138.942C367.379 143.399 353.388 155.539 353.388 155.539V164.12H396.331V154.134L370.809 154.139ZM304.719 31.7833C281.263 11.276 250.892 -0.0146484 219.185 -0.0146484C187.478 -0.0146484 157.101 11.276 133.65 31.7833C131.396 33.7576 129.227 35.8031 127.147 37.9151L131.34 43.1546C133.453 40.9857 135.665 38.8833 137.98 36.8615C160.231 17.4078 189.071 6.69612 219.189 6.69612C249.303 6.69612 278.147 17.4125 300.399 36.8615C302.714 38.8833 304.925 40.9857 307.043 43.1546L311.237 37.9151C309.147 35.8031 306.977 33.7576 304.719 31.7833ZM219.185 55.8169C196.057 55.8169 175.07 66.296 162.274 81.801L166.332 86.8792C177.957 72.2237 197.73 62.148 219.185 62.148C240.64 62.148 260.408 72.2237 272.037 86.8792L276.095 81.801C263.294 66.296 242.312 55.8169 219.185 55.8169ZM289.604 38.2046L288.395 37.2649C286.516 35.7936 285.026 36.4248 283.939 37.1415L255.741 55.627L263.112 59.8557L281.085 48.0762L277.988 58.6597L275.261 56.581L270.552 60.0028L276.4 64.426L275.041 69.1815L281.498 75.1662L290.855 42.5424C291.229 41.3844 291.501 39.6853 289.604 38.2046ZM245.433 25.3572L257.306 28.4754L259.18 21.1429L246.975 17.9393C240.284 16.1786 235.701 18.7176 234.075 25.0772L229.09 44.5689C228.86 45.4659 228.954 46.3202 229.362 47.0273C229.769 47.7297 230.453 48.2281 231.353 48.4654L235.884 49.6519L239.098 37.0513L252.836 40.6583L254.692 33.4064L240.949 29.7995L241.483 27.7207C242.186 24.9538 243.001 24.7213 245.433 25.3572ZM206.913 14.6076L187.103 18.6797C186.198 18.8648 185.482 19.3251 185.036 20.0038C184.587 20.692 184.451 21.532 184.633 22.4527L188.583 42.158C189.225 45.3567 190.645 47.668 192.8 49.0159C194.229 49.9081 195.935 50.3495 197.908 50.3495C198.91 50.3448 199.983 50.2309 201.117 49.9983L213.501 47.4497L212.011 40.0176L199.965 42.4902C197.5 42.998 196.699 42.7227 196.136 39.9131L195.715 37.8012L209.65 34.9346L208.178 27.5831L194.244 30.4497L193.185 25.1722L208.413 22.0446L206.913 14.6076ZM175.787 55.1904C176.19 51.6214 175.112 48.2993 172.498 45.0245L160.147 29.6381L154.028 34.6736L165.367 48.8118C167.344 51.2702 167.892 52.6276 167.705 54.6399C167.569 56.2203 166.613 57.8529 165.085 59.1106C163.563 60.3635 161.796 60.9757 160.231 60.7906C158.254 60.5581 157.05 59.737 155.082 57.2786L143.738 43.1499L137.619 48.1854L149.97 63.5812C152.598 66.8465 155.588 68.5882 159.121 68.911C159.538 68.9537 159.95 68.9774 160.358 68.9774C163.773 69.0106 166.95 67.7909 170.029 65.2708C173.463 62.4232 175.342 59.1248 175.787 55.1904Z" fill="white" fill-opacity="0.1"/>
</g>
</g>
<defs>
<clipPath id="clip0_611_596">
<rect width="447" height="220" fill="white"/>
</clipPath>
</defs>
</svg>
