<svg width="19" height="20" viewBox="0 0 19 20" fill="none" xmlns="http://www.w3.org/2000/svg">
<path d="M16.1234 3.06972L12.2969 1.62804C11.6081 1.40041 10.9193 1.47629 10.3836 1.85568C10.154 2.00743 10.001 2.15919 9.84789 2.31094H6.93974C5.79178 2.31094 4.79688 3.29735 4.79688 4.43551V5.19428C4.79688 5.49779 5.02647 5.8013 5.40912 5.8013C5.79178 5.8013 6.02137 5.49779 6.02137 5.19428V4.43551C6.02137 3.90437 6.48055 3.52498 6.93974 3.52498H9.46523V14.5272H6.93974C6.40402 14.5272 6.02137 14.072 6.02137 13.6166V12.8579C6.02137 12.5544 5.79178 12.2509 5.40912 12.2509C5.02647 12.2509 4.79688 12.4785 4.79688 12.782V13.5408C4.79688 14.6789 5.71525 15.6653 6.93974 15.6653H9.84789C10.001 15.8171 10.154 16.0448 10.3071 16.1207C10.6898 16.3483 11.0724 16.5 11.5316 16.5C11.7611 16.5 12.0673 16.4241 12.2969 16.3483L16.1234 14.9066C16.9652 14.6031 17.501 13.8443 17.501 12.9338V4.96665C17.501 4.132 16.8887 3.29735 16.1234 3.06972Z" fill="white"/>
<path d="M5.79082 10.1299C5.56122 10.3575 5.56122 10.737 5.79082 10.9646C5.86735 11.0405 6.02041 11.1163 6.17347 11.1163C6.32653 11.1163 6.47959 11.0405 6.55612 10.9646L8.08674 9.44703C8.16327 9.37113 8.16326 9.29531 8.23979 9.29531C8.23979 9.21941 8.31633 9.14351 8.31633 9.06768C8.31633 8.99178 8.31633 8.91588 8.23979 8.84006C8.23979 8.76416 8.16327 8.68826 8.08674 8.68826L6.55612 7.17072C6.32653 6.94309 5.94388 6.94309 5.71428 7.17072C5.48469 7.39836 5.48469 7.77776 5.71428 8.00538L6.25 8.53653H3.11225C2.80612 8.53653 2.5 8.76416 2.5 9.14351C2.5 9.52293 2.72959 9.75056 3.11225 9.75056H6.32653L5.79082 10.1299Z" fill="white"/>
</svg>
